<svg width="64" height="81" viewBox="0 0 64 81" fill="none" xmlns="http://www.w3.org/2000/svg">
<path d="M31.2629 81C29.2682 81 27.5949 80.568 26.2432 79.704C24.8915 78.84 24.218 77.772 24.2227 76.5V71.325C18.9425 70.575 14.3077 69.2625 10.3182 67.3875C6.32875 65.5125 3.10197 62.8875 0.637891 59.5125C-0.183469 58.4625 -0.211631 57.3555 0.553408 56.1915C1.31845 55.0275 2.69599 54.1845 4.68602 53.6625C6.32875 53.2125 8.03014 53.232 9.7902 53.721C11.5503 54.21 12.8996 55.0155 13.8383 56.1375C15.8331 58.3875 18.3558 60.093 21.4066 61.254C24.4573 62.415 28.2121 62.997 32.671 63C37.4818 63 41.5581 62.3055 44.8998 60.9165C48.2416 59.5275 49.9148 57.372 49.9195 54.45C49.9195 51.825 48.6288 49.7445 46.0474 48.2085C43.466 46.6725 37.4818 44.928 28.0948 42.975C18.0038 40.95 11.0809 38.5305 7.32611 35.7165C3.57132 32.9025 1.69392 29.472 1.69392 25.425C1.69392 20.55 4.15801 16.7625 9.08617 14.0625C14.0143 11.3625 19.0598 9.82501 24.2227 9.45001V4.50001C24.2227 3.22501 24.8985 2.15551 26.2503 1.29151C27.602 0.427515 29.2705 -0.00298443 31.2559 1.55709e-05C33.2506 1.55709e-05 34.9238 0.432016 36.2756 1.29602C37.6273 2.16002 38.3008 3.22801 38.2961 4.50001V9.45001C42.7549 9.90001 46.627 10.8195 49.9125 12.2085C53.1979 13.5975 55.8967 15.303 58.0088 17.325C59.0648 18.3 59.2713 19.3875 58.6283 20.5875C57.9853 21.7875 56.6641 22.65 54.6646 23.175C53.0219 23.625 51.3205 23.6445 49.5605 23.2335C47.8004 22.8225 46.1577 22.0905 44.6323 21.0375C43.1069 19.9875 41.3164 19.182 39.2606 18.621C37.2049 18.06 34.654 17.778 31.6079 17.775C26.445 17.775 22.5142 18.507 19.8155 19.971C17.1167 21.435 15.7697 23.253 15.7744 25.425C15.7744 27.9 17.5345 29.85 21.0546 31.275C24.5747 32.7 30.6762 34.2 39.3592 35.775C47.4554 37.275 53.5875 39.657 57.7553 42.921C61.9231 46.185 64.0047 49.953 64 54.225C64 59.55 61.5359 63.6 56.6078 66.375C51.6796 69.15 45.578 70.875 38.3031 71.55V76.5C38.3031 77.775 37.6273 78.8445 36.2756 79.7085C34.9238 80.5725 33.2529 81.003 31.2629 81Z" fill="white"/>
</svg>
