<svg width="256" height="256" viewBox="0 0 256 256" fill="none" xmlns="http://www.w3.org/2000/svg">
<path d="M212 86.7C212 64.4218 203.15 43.0561 187.397 27.303C171.644 11.55 150.278 2.7 128 2.7C105.722 2.7 84.3561 11.55 68.603 27.303C52.85 43.0561 44 64.4218 44 86.7C38.2551 89.424 33.6083 94.0221 30.824 99.738C28.0396 105.454 27.2835 111.947 28.68 118.15C30.0765 124.353 33.5424 129.896 38.5077 133.867C43.473 137.838 49.642 140.001 56 140H57L117.54 246C118.589 247.837 120.106 249.364 121.936 250.427C123.766 251.489 125.844 252.048 127.96 252.048C130.076 252.048 132.154 251.489 133.984 250.427C135.814 249.364 137.331 247.837 138.38 246L199 140H200C206.358 140.001 212.527 137.838 217.492 133.867C222.458 129.896 225.924 124.353 227.32 118.15C228.716 111.947 227.96 105.454 225.176 99.738C222.392 94.0221 217.745 89.424 212 86.7ZM128 215.81L84.68 140H110.75L141 193L128 215.81ZM154.86 168.81L138.39 140H171.32L154.86 168.81ZM200 116H56C54.9391 116 53.9217 115.579 53.1716 114.828C52.4214 114.078 52 113.061 52 112C52 110.939 52.4214 109.922 53.1716 109.172C53.9217 108.421 54.9391 108 56 108C59.1826 108 62.2348 106.736 64.4853 104.485C66.7357 102.235 68 99.1826 68 96V88C68 72.087 74.3214 56.8258 85.5736 45.5736C96.8258 34.3214 112.087 28 128 28C143.913 28 159.174 34.3214 170.426 45.5736C181.679 56.8258 188 72.087 188 88V96C188 99.1826 189.264 102.235 191.515 104.485C193.765 106.736 196.817 108 200 108C201.061 108 202.078 108.421 202.828 109.172C203.579 109.922 204 110.939 204 112C204 113.061 203.579 114.078 202.828 114.828C202.078 115.579 201.061 116 200 116Z" fill="white"/>
</svg>
