<svg width="481" height="482" viewBox="0 0 481 482" fill="none" xmlns="http://www.w3.org/2000/svg">
<path d="M240.5 4.17512e-07C194.923 0.0924273 150.316 13.1659 111.9 37.69L121 50.86C156.9 28.09 198.5 16 241 16C268.3 16 295.4 20.98 320.9 30.72L327.2 16.01C299.694 5.42548 270.473 -0.00173803 241 4.17512e-07H240.5ZM343.8 23.12L337.5 37.83C391.8 63.74 433.4 110.4 452.9 167.3L468.2 162.7C453.8 97.5 412.2 45.3 343.8 23.12ZM240.4 35C202 35.11 164.3 46.02 131.8 66.49L239.1 221.5C270.3 165.7 293.8 107.5 313.4 48.2C290.3 39.47 265.7 35 241 35H240.4ZM269.8 43.93L288.9 67.79L274.9 79.04L255.8 55.17L269.8 43.93ZM97.1 47.93C22.18 88.2 5.64 149.2 2.2 216L18.18 217C24.57 155.1 56.46 98.6 106.2 61.09L97.1 47.93ZM207.2 55C215.4 55 223 57.12 229.1 61.2C235.2 65.27 240.1 71.95 240.1 80C240.1 88.1 235.2 94.7 229.1 98.8C223 102.9 215.4 105 207.2 105C199 105 191.4 102.9 185.3 98.8C179.2 94.7 174.3 88.1 174.3 80C174.3 71.95 179.2 65.27 185.3 61.2C191.4 57.12 199 55 207.2 55ZM330 55.31C311.7 114.6 288.3 171.8 256.9 225.8L325.2 205.4C322 200.5 320.2 194.5 320.2 188.2C320.2 173.2 330.7 159.4 345.6 159.4C360.5 159.4 371 173.2 371 188.2C371 189.4 370.9 190.6 370.8 191.9L434.7 172.8C416.8 121.3 379.1 78.98 330 55.31ZM207.2 73C202.2 73 197.9 74.44 195.3 76.16C192.7 77.87 192.3 79.21 192.3 80C192.3 80.79 192.7 82.13 195.3 83.84C197.9 85.6 202.2 87 207.2 87C212.2 87 216.5 85.6 219.1 83.84C221.7 82.13 222.1 80.79 222.1 80C222.1 79.21 221.7 77.87 219.1 76.16C216.5 74.44 212.2 73 207.2 73ZM117 76.72C72.04 110.9 43.15 162.1 37.16 218.2C99.8 218.8 162.3 220 223.1 229.8L204 202.2L185.5 212.3L176.9 196.5L193.7 187.3L136.7 105.2L113.6 123.5L102.4 109.3L126.4 90.3L117 76.72ZM350.6 90.5L362.8 110.6L347.4 120L335.2 99.9L350.6 90.5ZM244.1 113.6L251.9 129.8L221.7 144.1L213.9 127.9L244.1 113.6ZM108.4 135C125.4 135 138 150.6 138 168C138 185.4 125.4 201 108.4 201C91.4 201 78.8 185.4 78.8 168C78.8 150.6 91.4 135 108.4 135ZM406.4 144.3L410.1 171.9L392.3 174.3L388.6 146.7L406.4 144.3ZM108.4 153C102.7 153 96.8 158.9 96.8 168C96.8 177.1 102.7 183 108.4 183C114.1 183 120 177.1 120 168C120 158.9 114.1 153 108.4 153ZM345.6 177.4C342.4 177.4 338.2 181.3 338.2 188.2C338.2 195.1 342.4 199 345.6 199C348.8 199 353 195.1 353 188.2C353 181.3 348.8 177.4 345.6 177.4ZM473.4 180L458 184.5C462.6 202.6 465 221.3 465 240C465 287.1 450.2 333 422.6 371.2L435.2 381.1C465 340.1 481 290.7 481 240C481 219.8 478.5 199.6 473.4 180ZM439.8 190L315.8 227.1L325.8 234.2L315.4 248.8L294 233.6L260.2 243.7C305.3 286.6 357.9 321.4 407.6 359.4C431.4 324.6 439 282.8 446 240C448.7 223.3 443.9 206.3 439.8 190ZM1.07 234C0.969998 236 1.07 238 0.969998 240C-4.11 310.3 10.03 378.7 83.54 421.2L93.6 408.7C44.92 366.2 16.99 304.7 17 240V235L1.07 234ZM36.04 236.2V240C36.04 262 39.56 283.8 46.49 304.7L57.48 281.2L73.78 288.8L55.65 327.6C67.59 352.9 84.56 375.4 105.5 393.9L223 247.9L93.9 239.8L69.3 264.3L56.58 251.5L69.8 238.3L36.04 236.2ZM403.6 249.3C405.9 249.2 408.2 249.5 410.5 250.3C417.7 252.5 422.8 258.4 425.2 265.1C427.6 271.6 427.6 279 425.3 286.3C423.1 293.5 418.7 299.6 413.1 303.7C407.3 307.6 399.8 309.6 392.5 307.3C389.9 306.5 387.6 305.2 385.6 303.6L377.8 312.5L350.2 288.7L362 275.1L376.5 287.6C375.5 282.3 375.9 276.7 377.6 271.3C379.9 264 384.2 258 389.9 254C393.9 251.2 398.7 249.4 403.6 249.3ZM142.5 254.8L172.2 266L165.8 282.8L136.1 271.6L142.5 254.8ZM251.2 259.4L256.5 344C261.3 345 265.7 346.6 269.6 348.9C276.3 352.8 282 359.5 282 368C282 376.5 276.3 383.2 269.6 387.1C266.5 388.9 263.1 390.3 259.5 391.3L262.8 443.8C273.9 442.6 284.8 440.5 295.5 437.6L299 408.5L316.8 410.7L314.3 431.4C346.1 419.3 374.3 399.4 396.5 373.6C375.8 357.3 351.1 345.7 334.3 324.7L327.1 344.8L310.1 338.8L319.3 312.9C291.1 298.9 273.5 277.5 251.2 259.4ZM233.5 263.7L119.5 405.1C154.7 431 197.3 445 241 445H244.8L241.5 392.8C234.3 392.3 227.7 390.4 222.2 387.1C215.5 383.2 209.8 376.5 209.8 368C209.8 359.5 215.5 352.8 222.2 348.9C226.9 346.1 232.5 344.3 238.5 343.5L233.5 263.7ZM404.1 267.3C403.1 267.2 401.9 267.6 400.3 268.6C398.2 270.1 396 273 394.8 276.7C393.7 280.4 393.9 284 394.7 286.4C395.6 288.8 396.8 289.8 397.9 290.1C399.1 290.5 400.6 290.3 402.7 288.9C404.7 287.5 407 284.6 408.2 280.9C409.3 277.2 409.1 273.5 408.3 271.2C407.4 268.8 406.2 267.8 405.1 267.4C404.8 267.3 404.5 267.3 404.1 267.3ZM110.8 297.2C115.1 297.3 119.4 298.3 123.4 300.2C137.7 307.1 144.7 324.3 137.8 338.6C130.9 353 113.1 358.3 98.8 351.4C84.48 344.5 77.54 327.4 84.42 313C89.4 302.7 99.9 297.1 110.8 297.2ZM109.9 315.1C105.9 315.2 102.3 317.3 100.6 320.8C98.2 325.9 100.5 332.3 106.6 335.2C112.7 338.1 119.1 335.9 121.6 330.8C124 325.8 121.7 319.4 115.6 316.5C113.7 315.5 111.7 315.1 109.9 315.1ZM245.9 361C239.9 361 234.5 362.6 231.3 364.4C228.1 366.3 227.8 367.7 227.8 368C227.8 368.3 228.1 369.7 231.3 371.6C234.5 373.4 239.9 375 245.9 375C251.9 375 257.3 373.4 260.5 371.6C263.7 369.7 264 368.3 264 368C264 367.7 263.7 366.3 260.5 364.4C257.3 362.6 251.9 361 245.9 361ZM411.4 385.4C374 429.2 321.3 456.9 264 462.8L265 478.8C329 482.1 389.6 467.5 424 395.3L411.4 385.4ZM165.5 388.4L193.6 391L192 409L163.9 406.4L165.5 388.4ZM107.6 419.9L97.6 432.4C133.7 477.4 187.8 484.1 241 480C243 479.8 245 480 247 479.9L246 463.9C244.3 464 242.7 464 241 464C193 464 146.2 448.5 107.6 419.9Z" fill="white"/>
</svg>
