<svg width="20" height="16" viewBox="0 0 20 16" fill="none" xmlns="http://www.w3.org/2000/svg">
<path d="M9.928 16C9.53389 16.0011 9.14347 15.924 8.77939 15.7731C8.4153 15.6222 8.08478 15.4006 7.807 15.121L0.686 8L7.807 0.879C8.94 -0.255 10.916 -0.255 12.049 0.879C12.615 1.443 12.928 2.196 12.928 2.998C12.928 3.744 12.658 4.449 12.164 5H17C18.654 5 20 6.346 20 8C20 9.654 18.654 11 17 11H12.164C12.657 11.549 12.928 12.252 12.928 12.998C12.9296 13.3926 12.8527 13.7836 12.7018 14.1483C12.5509 14.5129 12.329 14.8439 12.049 15.122C11.771 15.4012 11.4404 15.6225 11.0763 15.7732C10.7123 15.9239 10.322 16.001 9.928 16ZM3.514 8L9.221 13.707C9.41137 13.889 9.66461 13.9906 9.928 13.9906C10.1914 13.9906 10.4446 13.889 10.635 13.707C10.824 13.518 10.928 13.266 10.928 12.999C10.928 12.732 10.824 12.482 10.637 12.294L7.342 9H17C17.2575 8.98848 17.5006 8.87809 17.6787 8.69182C17.8569 8.50554 17.9563 8.25774 17.9563 8C17.9563 7.74226 17.8569 7.49446 17.6787 7.30818C17.5006 7.12191 17.2575 7.01152 17 7H7.342L10.635 3.707C10.7282 3.6145 10.8022 3.50447 10.8528 3.38326C10.9033 3.26205 10.9294 3.13203 10.9295 3.00071C10.9295 2.86938 10.9037 2.73933 10.8533 2.61805C10.8029 2.49676 10.7291 2.38663 10.636 2.294C10.4457 2.11154 10.1923 2.00959 9.9287 2.0094C9.66507 2.00921 9.41155 2.11081 9.221 2.293L3.514 8Z" fill="white"/>
</svg>
