<svg width="153" height="149" viewBox="0 0 153 149" fill="none" xmlns="http://www.w3.org/2000/svg">
<ellipse cx="76.5" cy="74.5" rx="54.5" ry="53.5" fill="#F4E2D1"/>
<path d="M59.2678 71.5339C64.1478 80.81 72.01 88.3817 81.6006 93.1344L89.0561 85.9233C89.9711 85.0383 91.3267 84.7433 92.5128 85.1367C96.3083 86.3494 100.409 87.005 104.611 87.005C106.475 87.005 108 88.48 108 90.2828V101.722C108 103.525 106.475 105 104.611 105C72.7894 105 47 80.0561 47 49.2778C47 47.475 48.525 46 50.3889 46H62.25C64.1139 46 65.6389 47.475 65.6389 49.2778C65.6389 53.375 66.3167 57.3083 67.5706 60.9794C67.9433 62.1267 67.6722 63.405 66.7233 64.3228L59.2678 71.5339Z" fill="#EB3223"/>
</svg>
