<svg width="80" height="81" viewBox="0 0 80 81" fill="none" xmlns="http://www.w3.org/2000/svg">
<path d="M70 27H65V19.2857C65 8.64 53.8 0 40 0C26.2 0 15 8.64 15 19.2857V27H10C4.5 27 0 30.4714 0 34.7143V73.2857C0 77.5286 4.5 81 10 81H70C75.5 81 80 77.5286 80 73.2857V34.7143C80 30.4714 75.5 27 70 27ZM40 61.7143C34.5 61.7143 30 58.2429 30 54C30 49.7571 34.5 46.2857 40 46.2857C45.5 46.2857 50 49.7571 50 54C50 58.2429 45.5 61.7143 40 61.7143ZM55.5 27H24.5V19.2857C24.5 12.69 31.45 7.32857 40 7.32857C48.55 7.32857 55.5 12.69 55.5 19.2857V27Z" fill="white"/>
</svg>
